<?xml version="1.0" encoding="UTF-8"?>
<svg version="1.1" xmlns="http://www.w3.org/2000/svg" width="596" height="597">
<path d="M0 0 C0.82741699 0.39880371 1.65483398 0.79760742 2.50732422 1.20849609 C25.88077973 12.57537656 47.65906945 27.36159068 66.78515625 44.96875 C68.75839244 46.77841988 70.77107813 48.51839891 72.8125 50.25 C81.54656234 57.88788448 89.65291495 66.18718307 96.84375 75.29296875 C98.28256063 77.09930166 99.76257038 78.87356093 101.28125 80.61328125 C145.52277888 131.39049053 167.5900998 201.44300045 167.3125 268.0625 C167.31034485 269.00087708 167.3081897 269.93925415 167.30596924 270.90606689 C167.15415198 312.28021771 158.66146315 352.10837772 142 390 C141.64711914 390.80888672 141.29423828 391.61777344 140.93066406 392.45117188 C132.70048386 411.12056481 122.31303263 428.73636896 110 445 C109.1587219 446.12880768 108.31757792 447.25771534 107.4765625 448.38671875 C102.94040102 454.42448207 98.18708081 460.19295491 93.06640625 465.75 C91.24386514 467.7344682 89.49216442 469.75785892 87.75 471.8125 C80.10922607 480.54986648 71.80695839 488.66089039 62.6953125 495.8515625 C60.92597317 497.26190545 59.18943245 498.71461251 57.4921875 500.2109375 C42.12485486 513.69655593 24.17339742 524.70954608 6 534 C5.20625977 534.40911621 4.41251953 534.81823242 3.59472656 535.23974609 C-25.34196259 550.00278472 -56.04099991 558.80613891 -88 564 C-88.77730469 564.12890625 -89.55460937 564.2578125 -90.35546875 564.390625 C-165.00606562 576.3347205 -244.95401331 554.54061094 -305.75976562 510.65869141 C-315.64572077 503.33903369 -324.96490314 495.33897383 -334 487 C-335.00804747 486.09386355 -336.01722343 485.18898141 -337.02734375 484.28515625 C-342.07074234 479.75366691 -346.95200207 475.20563094 -351.3125 469.99609375 C-353.20175969 467.76134444 -355.1926439 465.64090806 -357.1875 463.5 C-395.65824267 420.77653918 -419.81231628 363.65931606 -427 307 C-427.17354004 305.63246582 -427.17354004 305.63246582 -427.35058594 304.23730469 C-430.28765621 279.73847819 -430.10521532 254.46978867 -427 230 C-426.88172852 229.06768555 -426.76345703 228.13537109 -426.64160156 227.17480469 C-420.1065535 178.30328747 -400.83228928 130.32963312 -371 91 C-370.34499512 90.13084961 -370.34499512 90.13084961 -369.67675781 89.24414062 C-364.00408743 81.75409204 -358.03911237 74.64686413 -351.609375 67.796875 C-349.22522271 65.24140638 -346.92257894 62.63299192 -344.625 60 C-336.01777907 50.42446672 -326.17457402 41.86499002 -316 34 C-315.33790527 33.48711426 -314.67581055 32.97422852 -313.99365234 32.44580078 C-302.1768302 23.36097968 -289.97430426 15.33036497 -277 8 C-275.86473877 7.3510376 -275.86473877 7.3510376 -274.70654297 6.68896484 C-191.54307689 -40.46296332 -85.41532185 -41.73917493 0 0 Z " fill="#5E66AD" transform="translate(429,30)"/>
<path d="M0 0 C4.39745745 3.1296421 6.52609419 7.22033998 8.6875 12.0625 C9.14608398 13.0333252 9.60466797 14.00415039 10.07714844 15.00439453 C12.20039747 19.99279689 13.35400902 25.1969736 14.55859375 30.46875 C14.81740829 31.59889526 15.07622284 32.72904053 15.34288025 33.89343262 C18.38485621 47.62468002 20.41675345 61.50502749 22.43638611 75.41395187 C22.97084571 79.07549943 23.51892495 82.73500994 24.06542969 86.39477539 C25.83110398 98.24515546 27.56436247 110.10001064 29.23046875 121.96484375 C34.02645214 158.10352088 34.02645214 158.10352088 46.6875 192.0625 C50.39744739 190.62184388 51.58654261 189.13341247 53.18359375 185.51953125 C57.24501018 175.10273583 58.19290102 163.75271896 59.75 152.75 C63.80284159 124.55693094 63.80284159 124.55693094 67.6875 112.0625 C68.01468018 111.00780518 68.34186035 109.95311035 68.67895508 108.86645508 C71.51421396 100.06923984 75.65307664 93.56606659 83.8125 88.9609375 C86.15460587 87.83867844 88.0919656 87.26215649 90.6875 87.0625 C91.76 86.959375 92.8325 86.85625 93.9375 86.75 C100.75890221 87.31845018 105.87815525 89.62872325 110.4375 94.8125 C114.24981678 100.13037376 115.80605357 106.0287683 117.5703125 112.2421875 C119.86016892 120.07253567 122.98040867 128.02942527 129.4375 133.3125 C132.35191392 136.87456146 132.34740271 139.192368 132.11328125 143.6875 C131.3583378 147.89856069 129.17750827 149.89177922 125.9375 152.4375 C121.51440572 153.6661373 117.62140765 153.09391741 113.63671875 150.96875 C100.93322849 142.08864031 96.85960916 129.52053679 94.203125 114.9921875 C93.94789063 113.54199219 93.94789063 113.54199219 93.6875 112.0625 C90.56183228 112.72217658 90.56183228 112.72217658 89.57397461 115.1484375 C88.51498176 118.62961037 87.96724219 122.09026804 87.50390625 125.6875 C87.40386795 126.42315186 87.30382965 127.15880371 87.20075989 127.91674805 C86.98807136 129.4865964 86.77830594 131.05684311 86.57122803 132.62744141 C86.24778173 135.07931552 85.91627442 137.52997805 85.58251953 139.98046875 C84.78354704 145.85683909 83.99827906 151.73501766 83.21337891 157.61328125 C77.65112216 199.05703094 77.65112216 199.05703094 61.59375 212.87109375 C55.21783403 216.85604123 47.95050659 216.9159255 40.6875 216.0625 C37.49254708 214.90258192 35.20554094 213.32525568 32.6875 211.0625 C32.16929687 210.60101563 31.65109375 210.13953125 31.1171875 209.6640625 C13.28369042 191.27035086 10.87207952 159.12645507 7.0078125 135.04724121 C6.52628586 132.06357442 6.02796694 129.08273254 5.53125 126.1015625 C3.82663676 115.74617331 2.31101784 105.37748431 0.90252686 94.97810364 C-0.4525181 84.99035831 -1.8546012 75.01002964 -3.30981445 65.03637695 C-3.60552308 62.99659425 -3.89712976 60.95621304 -4.18481445 58.9152832 C-6.37387355 43.38115515 -6.37387355 43.38115515 -10.56274414 28.29516602 C-11.3125 26.0625 -11.3125 26.0625 -11.3125 24.0625 C-11.9725 24.0625 -12.6325 24.0625 -13.3125 24.0625 C-19.322825 38.88711086 -24.2811881 53.9605003 -28.75 69.3125 C-29.17061707 70.74698486 -29.17061707 70.74698486 -29.59973145 72.21044922 C-34.34461821 88.40070423 -38.75248763 104.6449985 -42.80664062 121.02294922 C-43.75069786 124.82924946 -44.70421365 128.6331892 -45.65625 132.4375 C-46.83101982 137.13185897 -48.00485365 141.82641755 -49.16894531 146.5234375 C-50.86627198 153.36186931 -52.59538773 160.18803344 -54.42578125 166.9921875 C-55.96061868 172.70464878 -57.40385652 178.42799155 -58.75 184.1875 C-59.06239624 185.50500244 -59.06239624 185.50500244 -59.38110352 186.84912109 C-60.45055622 191.36387413 -61.5015618 195.88226508 -62.53125 200.40625 C-75.6447816 257.58145878 -75.6447816 257.58145878 -93.125 269.6875 C-99.40705842 273.53456586 -105.45964093 273.94557452 -112.65234375 272.63671875 C-118.92393074 270.84011299 -123.4662574 267.32647685 -128.3125 263.0625 C-128.89644531 262.57265625 -129.48039063 262.0828125 -130.08203125 261.578125 C-162.89337387 231.7636029 -174.6786309 172.28529735 -187.38238525 131.63922119 C-190.35268751 122.14100078 -193.36678106 112.67408129 -196.75 103.3125 C-197.04366455 102.49265625 -197.3373291 101.6728125 -197.63989258 100.828125 C-199.7885702 95.02479611 -202.45873108 89.54990844 -205.3125 84.0625 C-207.31795763 86.59847215 -208.84715849 88.95235667 -210.07421875 91.94140625 C-210.38431885 92.68841797 -210.69441895 93.43542969 -211.01391602 94.20507812 C-211.33932373 95.00365234 -211.66473145 95.80222656 -212 96.625 C-212.34667725 97.45837891 -212.69335449 98.29175781 -213.05053711 99.15039062 C-214.84798771 103.47432773 -216.61534436 107.80975851 -218.3671875 112.15234375 C-229.32653498 139.10713247 -229.32653498 139.10713247 -243.0625 145.375 C-251.69247689 148.95070721 -261.76960728 149.78627858 -270.6875 146.5 C-280.34124494 141.75403082 -287.27941688 134.17240745 -294.2734375 126.203125 C-299.35813099 120.59589383 -304.93521053 115.29699765 -312.8125 114.875 C-324.52355479 118.84839359 -331.88723095 128.10051462 -338.67358398 137.91210938 C-346.10960403 148.66153468 -346.10960403 148.66153468 -350.3125 150.0625 C-356.19650994 150.72861433 -356.19650994 150.72861433 -359.06640625 149.015625 C-362.87370359 145.89639344 -364.13280913 144.14064521 -364.9375 139.3125 C-364.80643279 127.66624225 -351.48154794 114.29781779 -343.875 106.59375 C-334.82946156 98.11355771 -324.64465366 91.33476894 -311.9375 90.625 C-298.28125915 91.24791625 -285.98492363 99.59305041 -276.85546875 109.30859375 C-275.14096748 111.25748253 -273.44439933 113.22111467 -271.75 115.1875 C-266.95391624 121.15266519 -266.95391624 121.15266519 -260.3359375 124.46875 C-255.75623828 124.67457918 -252.89999951 123.79395567 -249.3125 121.0625 C-247.85893806 118.7787533 -246.69816981 116.68194848 -245.5625 114.25 C-245.22742432 113.5593042 -244.89234863 112.8686084 -244.54711914 112.15698242 C-241.69856515 106.16496996 -239.22173456 100.02961905 -236.75 93.875 C-225.79440213 66.70669696 -225.79440213 66.70669696 -213.25 60.5625 C-206.17235419 59.35779433 -199.71162615 59.59864964 -193.3125 63.0625 C-175.60880923 77.11836035 -169.54477433 108.1347935 -163.05078125 128.5078125 C-148.35718717 175.12282693 -148.35718717 175.12282693 -129.3125 220.0625 C-128.96977051 220.76858398 -128.62704102 221.47466797 -128.27392578 222.20214844 C-123.38794256 232.12380512 -117.83984547 242.88924277 -108.3125 249.0625 C-105.65110981 249.30940406 -105.65110981 249.30940406 -103.3125 248.0625 C-86.76201558 226.30694923 -83.18105113 187.06327445 -77.3125 161.0625 C-72.0268503 137.76648835 -66.65383146 114.45793446 -60.01660156 91.50292969 C-59.51150443 89.75225322 -59.01143774 88.0001224 -58.51464844 86.24707031 C-54.69091236 72.77562135 -50.55327527 59.41988979 -46.07888794 46.15133667 C-45.57811414 44.66393099 -45.08094572 43.17530528 -44.58786011 41.68533325 C-33.28649294 7.64349891 -33.28649294 7.64349891 -21.6875 0.625 C-14.79912747 -2.56406136 -6.90802552 -3.81448848 0 0 Z " fill="#FDFDFE" transform="translate(410.3125,166.9375)"/>
</svg>
